<?xml version="1.0" encoding="UTF-8" standalone="no"?>
<!-- Generator: Adobe Illustrator 18.1.1, SVG Export Plug-In . SVG Version: 6.00 Build 0)  -->

<svg
   version="1.1"
   id="Capa_1"
   x="0px"
   y="0px"
   viewBox="0 0 26.39 26.39"
   style="enable-background:new 0 0 26.39 26.39;"
   xml:space="preserve"
   sodipodi:docname="home.svg"
   inkscape:version="1.2 (dc2aedaf03, 2022-05-15)"
   xmlns:inkscape="http://www.inkscape.org/namespaces/inkscape"
   xmlns:sodipodi="http://sodipodi.sourceforge.net/DTD/sodipodi-0.dtd"
   xmlns="http://www.w3.org/2000/svg"
   xmlns:svg="http://www.w3.org/2000/svg"><defs
   id="defs3774" /><sodipodi:namedview
   id="namedview3772"
   pagecolor="#ffffff"
   bordercolor="#000000"
   borderopacity="0.25"
   inkscape:showpageshadow="2"
   inkscape:pageopacity="0.0"
   inkscape:pagecheckerboard="0"
   inkscape:deskcolor="#d1d1d1"
   showgrid="false"
   inkscape:zoom="32.095491"
   inkscape:cx="13.179421"
   inkscape:cy="13.210578"
   inkscape:window-width="1920"
   inkscape:window-height="1027"
   inkscape:window-x="-8"
   inkscape:window-y="-8"
   inkscape:window-maximized="1"
   inkscape:current-layer="Capa_1" />
<g
   id="g3739">
	<g
   id="c14_house">
		<path
   d="M3.588,24.297c0,0-0.024,0.59,0.553,0.59c0.718,0,6.652-0.008,6.652-0.008l0.01-5.451c0,0-0.094-0.898,0.777-0.898h2.761    c1.031,0,0.968,0.898,0.968,0.898l-0.012,5.434c0,0,5.628,0,6.512,0c0.732,0,0.699-0.734,0.699-0.734V14.076L13.33,5.913    l-9.742,8.164C3.588,14.077,3.588,24.297,3.588,24.297z"
   id="path3731" />
		<path
   d="M0,13.317c0,0,0.826,1.524,2.631,0l10.781-9.121l10.107,9.064c2.088,1.506,2.871,0,2.871,0L13.412,1.504L0,13.317z"
   id="path3733" />
		<polygon
   points="23.273,4.175 20.674,4.175 20.685,7.328 23.273,9.525   "
   id="polygon3735" />
	</g>
	<g
   id="Capa_1_216_">
	</g>
</g>
<g
   id="g3741">
</g>
<g
   id="g3743">
</g>
<g
   id="g3745">
</g>
<g
   id="g3747">
</g>
<g
   id="g3749">
</g>
<g
   id="g3751">
</g>
<g
   id="g3753">
</g>
<g
   id="g3755">
</g>
<g
   id="g3757">
</g>
<g
   id="g3759">
</g>
<g
   id="g3761">
</g>
<g
   id="g3763">
</g>
<g
   id="g3765">
</g>
<g
   id="g3767">
</g>
<g
   id="g3769">
</g>
</svg>
