<?xml version="1.0" encoding="UTF-8" standalone="no"?>
<!-- Generator: Adobe Illustrator 21.1.0, SVG Export Plug-In . SVG Version: 6.00 Build 0)  -->

<svg
   version="1.1"
   id="Layer_1"
   x="0px"
   y="0px"
   viewBox="0 0 11.998072 8.0072212"
   xml:space="preserve"
   sodipodi:docname="mail.svg"
   width="11.998072"
   height="8.0072212"
   inkscape:version="1.2 (dc2aedaf03, 2022-05-15)"
   inkscape:export-filename="../20/mail.svg"
   inkscape:export-xdpi="96"
   inkscape:export-ydpi="96"
   xmlns:inkscape="http://www.inkscape.org/namespaces/inkscape"
   xmlns:sodipodi="http://sodipodi.sourceforge.net/DTD/sodipodi-0.dtd"
   xmlns="http://www.w3.org/2000/svg"
   xmlns:svg="http://www.w3.org/2000/svg"><defs
   id="defs779" /><sodipodi:namedview
   id="namedview777"
   pagecolor="#ffffff"
   bordercolor="#000000"
   borderopacity="0.25"
   inkscape:showpageshadow="2"
   inkscape:pageopacity="0.0"
   inkscape:pagecheckerboard="0"
   inkscape:deskcolor="#d1d1d1"
   showgrid="false"
   inkscape:zoom="44.2366"
   inkscape:cx="5.6627317"
   inkscape:cy="7.550309"
   inkscape:window-width="1920"
   inkscape:window-height="1013"
   inkscape:window-x="0"
   inkscape:window-y="0"
   inkscape:window-maximized="1"
   inkscape:current-layer="Layer_1" />
<style
   type="text/css"
   id="style765">
	.st0{fill:#1A1A1A;}
</style>
<g
   id="Layer_x0020_1"
   transform="matrix(0.03190128,0,0,0.03190128,-0.37962523,-2.6254753)"
   style="fill:#ffffff">
	<polygon
   class="st0"
   points="11.9,324.5 11.9,90.2 162,190.4 "
   id="polygon767"
   style="fill:#ffffff" />
	<path
   class="st0"
   d="M 175.3,183.6 23.6,82.3 h 352.8 l -152,101.4 c -0.3,0.1 -0.6,0.3 -0.8,0.5 -0.2,0.1 -0.4,0.3 -0.5,0.4 L 200,200 176.6,184.4 c -0.4,-0.4 -0.9,-0.6 -1.3,-0.8 z"
   id="path769"
   style="fill:#ffffff" />
	<path
   class="st0"
   d="M 226.7,197.8 378.2,333.3 H 21.7 l 151.5,-135.5 23.2,15.4 c 0.2,0.1 0.4,0.3 0.6,0.3 0.4,0.3 0.9,0.5 1.4,0.6 0.5,0.1 1.1,0.2 1.6,0.2 0.5,0 1,-0.1 1.4,-0.2 0.6,-0.1 1.1,-0.3 1.6,-0.7 0.2,-0.1 0.3,-0.1 0.5,-0.3 z"
   id="path771"
   style="fill:#ffffff" />
	<polygon
   class="st0"
   points="388,324.5 238,190.4 388,90.2 "
   id="polygon773"
   style="fill:#ffffff" />
</g>
</svg>
