<?xml version="1.0" encoding="UTF-8" standalone="no"?>
<svg
   id="Layer_1"
   data-name="Layer 1"
   viewBox="0 0 18.592382 23.811026"
   version="1.1"
   sodipodi:docname="4214196391582960197.svg"
   width="18.592382"
   height="23.811026"
   inkscape:export-filename="../Documents/medialrs/1/icons/24/zastupnistva.svg"
   inkscape:export-xdpi="96"
   inkscape:export-ydpi="96"
   xmlns:inkscape="http://www.inkscape.org/namespaces/inkscape"
   xmlns:sodipodi="http://sodipodi.sourceforge.net/DTD/sodipodi-0.dtd"
   xmlns="http://www.w3.org/2000/svg"
   xmlns:svg="http://www.w3.org/2000/svg"
   xmlns:rdf="http://www.w3.org/1999/02/22-rdf-syntax-ns#"
   xmlns:cc="http://creativecommons.org/ns#"
   xmlns:dc="http://purl.org/dc/elements/1.1/">
  <sodipodi:namedview
     id="namedview15"
     pagecolor="#ffffff"
     bordercolor="#000000"
     borderopacity="0.25"
     inkscape:showpageshadow="2"
     inkscape:pageopacity="0.0"
     inkscape:pagecheckerboard="0"
     inkscape:deskcolor="#d1d1d1"
     showgrid="false" />
  <defs
     id="defs4">
    <style
       id="style2">.cls-1{fill:#2d3e50;}.cls-2{fill:#2e79bd;}</style>
  </defs>
  <title
     id="title6">b</title>
  <path
     class="cls-1"
     d="M 15.210417,9.8005073 Q 15.150041,9.6310892 15.08047,9.4663571 A 6.2767096,6.2767096 0 0 0 9.3444209,5.6285034 L 9.296369,5.6281536 9.251431,5.6285034 A 6.2784138,6.2784138 0 0 0 3.5119075,9.4663571 Q 3.44216,9.6310892 3.382133,9.8003324 a 6.2829278,6.2829278 0 0 0 -1.728e-4,4.2105126 c 0.040257,0.112943 0.083628,0.2245 0.1302931,0.333801 A 6.2759867,6.2759867 0 0 0 9.248305,18.18251 l 0.048052,3.49e-4 0.044938,-3.49e-4 a 6.2779339,6.2779339 0 0 0 5.739174,-3.837854 q 0.06975,-0.164472 0.129774,-0.333802 a 6.2824343,6.2824343 0 0 0 1.74e-4,-4.2103467 z m -2.503168,0.6186777 h 1.589377 a 5.2304321,5.2304321 0 0 1 0,2.972816 h -1.58955 a 11.593442,11.593442 0 0 0 1.73e-4,-2.972816 z M 9.8269062,13.392001 V 10.419185 H 11.63385 a 10.30733,10.30733 0 0 1 0,2.972816 z m 0,-4.0340695 V 6.8245682 C 10.478721,7.1590637 11.065303,8.0915929 11.412813,9.3579234 Z M 11.688486,7.2704534 a 5.2066065,5.2066065 0 0 1 2.158617,2.087472 H 12.511722 A 7.7642904,7.7642904 0 0 0 11.871531,7.5981689 Q 11.783565,7.4282403 11.688494,7.2704476 Z m 2.158617,7.1826346 a 5.2088587,5.2088587 0 0 1 -2.15826,2.087478 q 0.09447,-0.156925 0.18269,-0.327209 a 7.7705164,7.7705164 0 0 0 0.640191,-1.760267 z m -2.43429,0 c -0.347508,1.266503 -0.934094,2.199032 -1.5859068,2.533355 V 14.453088 Z M 8.7656449,6.824743 V 9.3579254 H 7.1795656 C 7.5270719,8.0917678 8.1136567,7.1592386 8.7656449,6.824743 Z m 0,3.594444 v 2.972814 h -1.807118 a 10.30733,10.30733 0 0 1 0,-2.972816 z m 0,4.033903 v 2.533355 C 8.1136567,16.651951 7.5270719,15.719413 7.1795656,14.453088 Z M 4.7456177,9.3579254 A 5.2047469,5.2047469 0 0 1 6.9038845,7.2704476 Q 6.8088928,7.4276327 6.7208496,7.5981769 A 7.7827216,7.7827216 0 0 0 6.0806585,9.3579335 Z M 6.0806524,14.45309 a 7.8010265,7.8010265 0 0 0 0.6400273,1.760088 q 0.087965,0.169937 0.1826892,0.327384 A 5.2055572,5.2055572 0 0 1 4.7456177,14.453088 Z M 5.8853007,13.392001 h -1.589376 a 5.2263999,5.2263999 0 0 1 0,-2.972816 h 1.589376 a 11.603874,11.603874 0 0 0 0,2.972816 z"
     id="path8"
     style="stroke-width:0.194319" />
  <path
     class="cls-2"
     d="m 0.84048342,5.5916061 0.005358,0.0039 c 0.009301,-0.013163 0.0190165,-0.025845 0.0287624,-0.038512 0.0175506,-0.024376 0.0355865,-0.048267 0.0541178,-0.072155 A 9.6363087,9.6363087 0 0 1 6.9719639,1.793378 9.7421136,9.7421136 0 0 1 8.6192772,1.6466358 9.5922701,9.5922701 0 0 1 12.896736,2.6138644 q 0.312987,0.1528379 0.61232,0.3276107 a 9.279995,9.279995 0 0 1 2.19338,1.7784108 l -0.07366,0.073662 -0.641083,0.641083 -0.343584,0.3435798 a 0.14828316,0.14828316 0 0 0 0.104853,0.253136 h 3.695133 a 0.14797614,0.14797614 0 0 0 0.121878,-0.064067 l 0.02641,-2.915e-4 -7.76e-4,-0.075784 c 1.51e-4,-0.00276 7.76e-4,-0.00536 7.76e-4,-0.00816 V 2.1879295 A 0.14828316,0.14828316 0 0 0 18.339245,2.0830767 l -0.292393,0.2923924 -0.689348,0.689344 -0.01073,0.010727 -0.113232,0.1132278 c -0.0228,-0.022056 -0.04519,-0.04451 -0.06812,-0.066426 A 11.412525,11.412525 0 0 0 6.013032,0.49024631 11.093965,11.093965 0 0 0 3.655405,1.5193928 10.835545,10.835545 0 0 0 0.73811561,4.00328 10.354604,10.354604 0 0 0 0.06729488,4.9163983 C 0.04487134,4.9510102 0.0224478,4.9856241 1.415003e-5,5.0207265 L 0.57235631,5.4097538 Z"
     id="path10"
     style="stroke-width:0.194319" />
  <path
     class="cls-2"
     d="m 17.751895,18.219407 -0.0054,-0.0039 c -0.0093,0.01316 -0.01903,0.02584 -0.02876,0.03851 -0.01755,0.02437 -0.03559,0.04826 -0.05412,0.07215 A 9.6363087,9.6363087 0 0 1 11.620376,22.017631 9.7421136,9.7421136 0 0 1 9.973063,22.164373 9.5922701,9.5922701 0 0 1 5.6956009,21.197145 Q 5.3826555,21.044266 5.0833215,20.869493 A 9.279995,9.279995 0 0 1 2.8899424,19.091082 l 0.07366,-0.07366 0.6410828,-0.641083 0.3435816,-0.343583 A 0.14828316,0.14828316 0 0 0 3.843416,17.779621 H 0.14828653 A 0.14797614,0.14797614 0 0 0 0.0264068,17.843691 L 0,17.843982 8.1586002e-4,17.919762 C 6.6421002e-4,17.922462 0,17.925162 0,17.927962 v 3.695131 a 0.14828316,0.14828316 0 0 0 0.25313629,0.104853 l 0.29239164,-0.292391 0.68934797,-0.689344 0.010726,-0.01073 0.1132318,-0.113229 c 0.022798,0.02206 0.045191,0.04451 0.06812,0.06643 a 11.412525,11.412525 0 0 0 11.1523943,2.632097 11.093965,11.093965 0 0 0 2.357626,-1.029147 10.835545,10.835545 0 0 0 2.91729,-2.483887 10.354604,10.354604 0 0 0 0.670821,-0.913118 c 0.02242,-0.03462 0.04485,-0.06922 0.06728,-0.104328 l -0.572342,-0.389027 z"
     id="path12"
     style="stroke-width:0.194319" />
  <metadata
     id="metadata17">
    <rdf:RDF>
      <cc:Work
         rdf:about="">
        <dc:title>b</dc:title>
      </cc:Work>
    </rdf:RDF>
  </metadata>
</svg>
