<?xml version="1.0" encoding="UTF-8" standalone="no"?>
<!-- Created with Inkscape (http://www.inkscape.org/) -->

<svg
   width="244.86087mm"
   height="118.61032mm"
   viewBox="0 0 925.45844 448.29097"
   version="1.1"
   id="svg5"
   xml:space="preserve"
   inkscape:version="1.2 (dc2aedaf03, 2022-05-15)"
   sodipodi:docname="logo1.svg"
   xmlns:inkscape="http://www.inkscape.org/namespaces/inkscape"
   xmlns:sodipodi="http://sodipodi.sourceforge.net/DTD/sodipodi-0.dtd"
   xmlns="http://www.w3.org/2000/svg"
   xmlns:svg="http://www.w3.org/2000/svg"><sodipodi:namedview
     id="namedview7"
     pagecolor="#ffffff"
     bordercolor="#000000"
     borderopacity="0.25"
     inkscape:showpageshadow="2"
     inkscape:pageopacity="0.0"
     inkscape:pagecheckerboard="0"
     inkscape:deskcolor="#d1d1d1"
     inkscape:document-units="mm"
     showgrid="false"
     inkscape:zoom="1.3222973"
     inkscape:cx="450.73072"
     inkscape:cy="174.69597"
     inkscape:window-width="1920"
     inkscape:window-height="1027"
     inkscape:window-x="-8"
     inkscape:window-y="-8"
     inkscape:window-maximized="1"
     inkscape:current-layer="layer1-4" /><defs
     id="defs2" /><g
     inkscape:label="Layer 1"
     inkscape:groupmode="layer"
     id="layer1"
     transform="translate(678.80829,145.36239)"><g
       inkscape:label="Layer 1"
       id="layer1-4"
       transform="matrix(3.7795276,0,0,3.7795276,-588.28133,-488.94738)"><rect
         style="fill:#8b789b;fill-opacity:1;stroke-width:0.51538"
         id="rect61-6"
         width="29.88657"
         height="30"
         x="6.0068588"
         y="90.90686" /><rect
         style="fill:#bf84a6;fill-opacity:1;stroke-width:0.516358"
         id="rect61-3-3"
         width="30"
         height="30"
         x="-23.951923"
         y="120.85646" /><path
         style="fill:#a88fbc;fill-opacity:1;stroke-width:0.267625"
         d="m 5.9291044,120.84897 8.4e-4,30.0573 30.0016236,-30.07676 z"
         id="path397" /><rect
         style="fill:#8baec9;fill-opacity:1;stroke-width:0.516357"
         id="rect61-7"
         width="30"
         height="30"
         x="43.843357"
         y="121.44757" /><rect
         style="fill:#7c98c0;fill-opacity:1;stroke-width:0.516357"
         id="rect61-3-5"
         width="30"
         height="30"
         x="13.87058"
         y="151.40613" /><path
         style="fill:#a6c0e1;fill-opacity:1;stroke-width:0.265774"
         d="m 43.881915,121.41944 0.004,30.05045 -29.97561,-0.0568 z"
         id="path546" /><g
         aria-label="MEDIAL"
         transform="rotate(-0.30489)"
         id="text2510"
         style="font-size:84.6667px;fill:#8b789b;stroke-width:0.264583"><path
           d="m 83.628037,182.39532 h 6.265336 v -27.60134 c 0,-5.50334 -0.338667,-13.46201 -0.677334,-18.20334 h 0.169334 c 2.116667,7.366 4.487335,13.716 6.688669,20.32001 h 0.169334 c 2.201334,-6.60401 4.572004,-12.95401 6.688674,-20.32001 h 0.16933 c -0.33867,4.74133 -0.67734,12.7 -0.67734,18.20334 v 27.60134 h 6.26534 V 121.9433 h -5.75733 l -3.72534,10.83734 c -1.016,3.048 -2.032001,6.18067 -2.963334,9.22867 h -0.169334 c -0.931334,-3.048 -1.947334,-6.18067 -2.963334,-9.22867 L 89.385373,121.9433 h -5.757336 z"
           style="font-family:'Industria LT Std';-inkscape-font-specification:'Industria LT Std'"
           id="path418" /><path
           d="m 133.7508,121.9433 h -12.53068 c -3.47133,0 -6.26533,2.794 -6.26533,6.26534 v 47.92135 c 0,3.47133 2.794,6.26533 6.26533,6.26533 h 12.53068 v -6.26533 h -12.53068 v -20.82801 h 9.39801 v -6.26534 h -9.39801 v -20.828 h 12.53068 z"
           style="font-family:'Industria LT Std';-inkscape-font-specification:'Industria LT Std'"
           id="path420" /><path
           d="m 138.49212,182.39532 h 12.53067 c 3.47134,0 6.26534,-2.794 6.26534,-6.26533 v -47.92135 c 0,-3.47134 -2.794,-6.26534 -6.26534,-6.26534 h -12.53067 z m 6.26534,-54.18668 h 6.26533 v 47.92135 h -6.26533 z"
           style="font-family:'Industria LT Std';-inkscape-font-specification:'Industria LT Std'"
           id="path422" /><path
           d="m 163.55342,182.39532 h 6.26534 V 121.9433 h -6.26534 z"
           style="font-family:'Industria LT Std';-inkscape-font-specification:'Industria LT Std'"
           id="path424" /><path
           d="m 176.08416,182.39532 h 6.26534 v -27.09334 h 6.26533 v 27.09334 h 6.26534 V 130.8333 c 0,-5.16467 -4.23334,-9.398 -9.39801,-9.398 -5.16466,0 -9.398,4.23333 -9.398,9.398 z m 6.26534,-54.18668 h 6.26533 v 20.828 h -6.26533 z"
           style="font-family:'Industria LT Std';-inkscape-font-specification:'Industria LT Std'"
           id="path426" /><path
           d="m 201.14546,182.39532 h 18.79601 v -18.796 h -6.26534 v 12.53067 H 207.4108 V 121.9433 h -6.26534 z"
           style="font-family:'Industria LT Std';-inkscape-font-specification:'Industria LT Std';display:inline"
           id="path428" /></g><g
         aria-label="Group"
         transform="matrix(0.98507911,4.3883093e-4,-4.2583312e-4,1.0151467,0,0)"
         id="text1583"
         style="font-size:29.7386px;font-family:'Industria LT Std';-inkscape-font-specification:'Industria LT Std';fill:#8b789b;stroke-width:0.343136"><path
           d="m 182.7817,194.2152 v 0.7696 q -1.65537,1.394 -3.2817,2.67183 -1.62633,1.26331 -3.94966,2.83156 -1.1907,1.62633 -2.04743,2.6573 -0.85673,1.0455 -1.48112,1.72798 -0.62439,0.68248 -0.63892,0.697 -0.20329,0.24685 -0.68247,0.4937 -0.47919,0.24686 -0.79865,0.24686 -0.45014,0 -0.75508,-0.33398 -0.29041,-0.31946 -0.29041,-0.7696 0,-1.16167 1.21974,-2.48306 1.21975,-1.30687 3.57212,-2.68635 1.16166,-1.66989 2.22168,-3.3543 1.06002,-1.69894 1.84414,-3.09293 0.79865,-1.394 1.4666,-2.74444 -1.04549,0.87125 -2.07647,1.68442 -1.03098,0.79864 -2.01839,1.5392 -0.98742,0.72604 -1.21975,0.90029 -0.23233,0.17425 -0.40658,0.30494 -2.52662,2.20716 -3.77541,2.20716 -1.1907,0 -2.00387,-1.13262 -0.81316,-1.13262 -0.81316,-2.8606 0,-1.08906 0.3485,-2.26524 0.34849,-1.19071 1.06001,-2.4395 0.72604,-1.24879 1.72798,-2.41045 1.00193,-1.16167 2.20716,-2.13456 1.85866,-1.48112 4.16747,-2.64279 2.30881,-1.17618 4.29816,-1.78605 1.98935,-0.6244 2.9332,-0.6244 0.55179,0 0.87125,0.2759 0.33398,0.26137 0.46466,0.72604 0.14521,0.45014 0.14521,0.95837 0,0.46467 -0.29042,0.92933 -0.4211,0.6244 -1.48112,1.32139 -1.06002,0.68248 -2.13455,1.21975 -1.07454,0.52275 -1.23427,0.52275 -0.0871,0 -0.0871,-0.0581 0,-0.13069 0.33398,-0.42111 0.33398,-0.29041 0.74056,-0.59535 0.90029,-0.68248 1.06002,-1.45208 -1.40852,0.39206 -2.80251,1.03098 -1.394,0.63891 -2.75896,1.52468 -1.36495,0.88577 -2.72991,2.01839 -1.5392,1.29235 -2.62826,2.70087 -1.07454,1.394 -1.64085,2.5847 -0.55179,1.19071 -0.55179,1.82963 0,0.47918 0.30493,0.8422 0.30494,0.3485 0.82769,0.3485 0.60987,0 1.51016,-0.53727 0.9729,-0.58083 2.13456,-1.48112 1.17619,-0.91481 2.1636,-1.72798 0.98741,-0.81316 2.13456,-1.78605 1.06002,-0.88577 1.64085,-1.42304 0.59535,-0.55179 0.88577,-0.95838 0.60987,-0.8422 1.20522,-0.97289 0.60988,-0.13069 1.03098,0.24685 0.43562,0.36302 0.43562,0.90029 0,0.17425 -0.63891,1.36496 -0.6244,1.17618 -1.93127,3.42691 -1.29235,2.2362 -3.19457,5.28557 1.68441,-0.90029 5.38721,-3.61568 z"
           style="font-family:'Brush Script MT';-inkscape-font-specification:'Brush Script MT'"
           id="path431" /><path
           d="m 182.56389,195.39139 v -0.94386 q 0.78412,-0.92933 1.19071,-1.58276 -0.46467,-0.15973 -0.68248,-0.39207 -0.20329,-0.23233 -0.20329,-0.69699 0,-0.52275 0.43562,-1.3214 0.43563,-0.79864 1.07454,-1.49564 0.63892,-0.697 1.16167,-0.90029 0.20329,-0.10164 0.39206,-0.10164 0.29041,0 0.29041,0.27589 0,0.24685 -0.45014,1.00194 2.99128,-0.46467 3.77541,-0.46467 0.30493,0 0.4211,0.0581 0.24685,0.13069 0.40658,0.60988 0.15973,0.47918 0.15973,0.95837 0,0.30494 -0.27589,0.66796 -0.26138,0.3485 -0.91481,1.03097 -0.76961,0.82769 -1.29236,1.80058 -0.52274,0.9729 -0.52274,1.4666 0,0.68248 0.8422,0.68248 0.88577,0 3.07841,-1.80058 v 0.9729 q -1.20523,1.26331 -1.98935,1.98935 -0.78412,0.72604 -1.45208,1.16166 -0.66796,0.4211 -1.1907,0.4211 -0.60988,0 -1.01646,-0.55179 -0.40658,-0.56631 -0.40658,-1.62633 0,-0.62439 0.31946,-1.42304 0.31945,-0.79864 0.92933,-1.72797 0.62439,-0.94385 1.39399,-1.87318 -0.40658,0.0871 -0.91481,0.18877 -0.50823,0.0871 -1.07454,0.18877 -0.56631,0.10164 -0.87124,0.15973 -0.90029,1.80057 -2.61375,3.26718 z"
           style="font-family:'Brush Script MT';-inkscape-font-specification:'Brush Script MT'"
           id="path433" /><path
           d="m 200.72941,194.24424 v 0.9729 q -0.95837,0.87124 -1.5392,1.16166 -0.58083,0.29042 -1.66989,0.23233 -1.88771,2.23621 -3.32527,2.23621 -0.81316,0 -1.48112,-0.53727 -0.66796,-0.53727 -1.07454,-1.4666 -0.39206,-0.92934 -0.39206,-2.07648 0,-0.92933 0.60987,-2.06195 0.6244,-1.13263 1.59729,-2.10552 0.98742,-0.98741 2.10552,-1.58277 1.1181,-0.60987 2.07647,-0.60987 0.68248,0 1.07454,0.21781 0.39206,0.20329 0.39206,0.58083 0,0.29042 -0.33397,0.66796 0.55179,0.11617 0.75508,0.39206 0.20329,0.26138 0.20329,0.9729 0,0.69699 -0.33398,1.75701 -0.31946,1.06002 -0.88577,1.98935 l 0.26138,0.26138 h 0.21781 q 0.24685,0 0.47918,-0.11617 0.24686,-0.13069 0.43563,-0.26137 0.18877,-0.14521 0.82768,-0.6244 z m -2.99128,-3.81897 q -1.20523,0.72604 -2.06196,1.32139 -0.85672,0.58084 -1.45208,1.19071 -0.59535,0.59535 -0.79864,1.20523 -0.36302,1.62633 -0.36302,1.75701 0,0.95838 1.33591,0.95838 0.6244,0 2.091,-1.07454 -0.24685,-0.68248 -0.24685,-1.30688 0,-0.91481 0.37754,-1.85866 0.37754,-0.95837 1.1181,-2.19264 z"
           style="font-family:'Brush Script MT';-inkscape-font-specification:'Brush Script MT'"
           id="path435" /><path
           d="m 207.53967,193.28587 q -2.10552,2.78799 -3.2091,3.96418 -1.08906,1.17618 -1.78606,1.17618 -0.55179,0 -1.01645,-0.45014 -0.46467,-0.46467 -0.72604,-1.23427 -0.24685,-0.78412 -0.24685,-1.66989 0,-0.58083 0.10164,-1.0455 0.11617,-0.46467 0.4211,-1.01646 0.30494,-0.56631 0.79865,-1.21974 0.50823,-0.65344 1.23427,-1.48112 0.43562,-0.50823 0.72604,-0.85673 0.30493,-0.3485 0.58083,-0.46467 0.29041,-0.13069 0.92933,-0.13069 0.46467,0 0.88577,0.13069 0.4211,0.11617 0.4211,0.24686 0,0.26137 -0.43562,0.94385 -0.42111,0.68248 -1.37948,1.66989 -0.94385,0.97289 -2.19264,1.91675 -0.27589,0.85672 -0.27589,1.30687 0,0.62439 0.47918,0.62439 0.17425,0 0.58083,-0.29041 0.40659,-0.30494 1.36496,-1.14715 0.97289,-0.85672 1.7425,-1.51016 0.56631,-0.49371 1.30687,-1.4666 0.75508,-0.98742 1.21974,-1.48112 1.07454,-1.13263 1.46661,-1.4666 0.39206,-0.3485 0.75508,-0.3485 0.3485,0 0.46466,0.21781 0.13069,0.21781 0.13069,0.88577 0,0.30493 -0.0581,0.4937 -0.0581,0.18878 -0.24686,0.49371 -0.17425,0.29042 -0.72604,1.08906 -0.55179,0.79865 -1.30687,1.88771 -0.40658,0.58083 -0.71152,1.27783 -0.30494,0.68247 -0.30494,1.03097 0,0.75509 0.59536,0.75509 0.4937,0 1.14714,-0.40659 0.65344,-0.40658 2.00387,-1.4666 v 0.9729 q -1.69893,1.56824 -2.5121,2.27976 -0.81316,0.71152 -1.40851,1.07454 -0.59536,0.36302 -1.13263,0.36302 -1.21974,0 -1.21974,-1.45208 0,-0.55179 0.36302,-1.48112 0.36302,-0.94385 1.17618,-2.71539 z"
           style="font-family:'Brush Script MT';-inkscape-font-specification:'Brush Script MT'"
           id="path437" /><path
           d="m 211.96851,195.49303 v -1.01646 q 2.03292,-2.20716 3.49952,-4.15294 1.48112,-1.94579 2.33785,-3.09293 0.85672,-1.14715 1.51016,-1.61181 0.65344,-0.47919 1.64085,-0.47919 0.49371,0 0.49371,0.37754 0,0.30494 -0.40659,0.90029 -0.39206,0.59535 -1.01645,1.21975 -0.82769,0.81316 -1.62633,2.04743 -0.78412,1.21975 -1.78606,3.12197 0.78412,-0.60987 1.80058,-1.43756 1.03098,-0.8422 1.66989,-1.30687 0.65344,-0.47919 1.27783,-0.75508 0.63892,-0.2759 1.27783,-0.2759 0.40659,0 0.52275,0.14521 0.13069,0.14521 0.13069,0.56631 0,1.10358 -0.53727,2.1636 -0.53727,1.0455 -1.53921,2.17812 -1.00193,1.13263 -2.46853,2.46854 0.50823,0.18877 1.0455,0.18877 1.68441,0 4.51596,-2.57018 v 1.0455 q -1.10358,0.98741 -2.16359,1.85866 -1.0455,0.87125 -1.97483,1.39399 -0.92933,0.52275 -1.71346,0.52275 -0.29041,0 -0.62439,-0.0726 -0.31946,-0.0581 -0.59536,-0.14521 -0.27589,-0.10164 -0.71151,-0.27589 -0.43563,-0.17425 -0.66796,-0.24686 -0.46467,0.11617 -0.52275,0.11617 -0.50823,0 -1.19071,-0.40658 -0.47918,0.92933 -1.06001,2.39593 -0.56632,1.48112 -0.95838,2.35237 -0.39206,0.87125 -1.04549,1.66989 -0.36302,0.36302 -0.50823,0.36302 -0.6244,0 -0.6244,-1.10358 0,-0.95837 0.39206,-2.00387 0.37755,-1.03098 0.94386,-1.96031 0.55179,-0.92933 1.21974,-1.87318 0.66796,-0.95837 0.94386,-1.42304 2.29428,-3.94966 3.57211,-6.72313 -3.33978,4.06582 -5.05324,5.83736 z m 5.89545,0.71152 q 1.43756,-1.51016 2.13456,-2.57018 0.71152,-1.06002 0.71152,-1.62633 0,-0.53727 -0.53727,-0.53727 -0.72604,0 -2.04744,1.20523 -1.30687,1.1907 -2.70087,3.22361 1.07454,-0.11616 1.43756,-0.0726 0.36302,0.029 1.00194,0.37754 z"
           style="font-family:'Brush Script MT';-inkscape-font-specification:'Brush Script MT'"
           id="path439" /></g></g></g></svg>
